<svg width="24" height="24" viewBox="0 0 24 24" fill="none" xmlns="http://www.w3.org/2000/svg">
<g clip-path="url(#clip0_438_2236)">
<g clip-path="url(#clip1_438_2236)">
<path d="M8.16207 17.3237C10.9492 20.2145 15.5663 20.6337 18.8662 18.3435C19.2006 18.1093 19.514 17.8594 19.8013 17.587C20.1092 17.3002 19.862 16.8019 19.4381 16.8647C16.4199 17.3198 13.2637 16.0812 11.39 13.4053C9.5163 10.7294 9.43185 7.33981 10.887 4.65253C11.0842 4.28043 10.7073 3.87292 10.3326 4.06412C9.98304 4.24782 9.64104 4.45677 9.30655 4.69098C6.02585 7.0085 4.84064 11.4905 6.60385 15.0983C6.80531 15.5168 7.04976 15.895 7.30787 16.2636C7.56598 16.6322 7.83774 16.9913 8.16207 17.3237V17.3237Z" fill="#FFF9B8"/>
</g>
</g>
<defs>
<clipPath id="clip0_438_2236">
<rect width="24" height="24" fill="white"/>
</clipPath>
<clipPath id="clip1_438_2236">
<rect width="20" height="20" fill="white" transform="translate(26 15.3831) rotate(145)"/>
</clipPath>
</defs>
</svg>
